<svg width="28" height="29" viewBox="0 0 28 29" fill="none" xmlns="http://www.w3.org/2000/svg">
<path d="M19.5922 16.3668C19.8156 15.7699 19.9289 15.1374 19.9267 14.5001C19.9267 13.085 19.3645 11.7279 18.3639 10.7273C17.3633 9.72669 16.0062 9.16455 14.5911 9.16455C13.9616 9.16529 13.3374 9.27855 12.7478 9.49899L14 10.7901C14.1903 10.7597 14.3828 10.744 14.5756 10.7434C15.5761 10.7414 16.5369 11.1352 17.248 11.8391C17.9591 12.5429 18.3629 13.4996 18.3711 14.5001C18.3705 14.6929 18.3549 14.8853 18.3244 15.0757L19.5922 16.3668Z" fill="#BA5112"/>
<path d="M26.67 14.1345C24.0489 9.28891 19.4522 6.35669 14.3656 6.35669C12.9806 6.35994 11.605 6.58309 10.29 7.0178L11.5422 8.2778C12.4646 8.03943 13.4129 7.91664 14.3656 7.91224C18.7445 7.91224 22.7267 10.3545 25.0989 14.4689C24.2287 15.9954 23.0751 17.3417 21.7 18.4356L22.8045 19.54C24.3958 18.2562 25.7175 16.6702 26.6933 14.8734L26.8956 14.5L26.67 14.1345Z" fill="#BA5112"/>
<path d="M3.78777 4.99556L7.25666 8.46445C5.06404 9.8762 3.27203 11.8289 2.05333 14.1344L1.8511 14.5L2.05333 14.8733C4.67444 19.7189 9.2711 22.6511 14.3578 22.6511C16.3432 22.6507 18.3028 22.2014 20.09 21.3367L23.9789 25.2256L25.34 24.0589L5.11777 3.83667L3.78777 4.99556ZM11.3711 12.5789L16.5433 17.7511C15.9589 18.1128 15.2862 18.3066 14.5989 18.3111C14.0995 18.3111 13.605 18.2124 13.144 18.0206C12.6829 17.8288 12.2643 17.5477 11.9122 17.1935C11.5602 16.8393 11.2817 16.4189 11.0927 15.9567C10.9037 15.4944 10.808 14.9994 10.8111 14.5C10.8199 13.8207 11.0135 13.1565 11.3711 12.5789ZM10.2433 11.4511C9.51567 12.4773 9.1746 13.7279 9.28053 14.9814C9.38645 16.235 9.93253 17.4106 10.8221 18.3001C11.7116 19.1897 12.8872 19.7358 14.1408 19.8417C15.3943 19.9476 16.6449 19.6066 17.6711 18.8789L18.9156 20.1233C17.4749 20.7391 15.9245 21.0566 14.3578 21.0567C9.97888 21.0567 5.99666 18.6144 3.62444 14.5C4.76288 12.4842 6.40245 10.7964 8.38444 9.6L10.2433 11.4511Z" fill="#BA5112"/>
</svg>
